<svg xmlns="http://www.w3.org/2000/svg" viewBox="0 0 512 512" xmlns:v="https://vecta.io/nano"><path d="M477.858 0H34.142C15.317 0 0 15.317 0 34.142v264.525c0 4.72 3.823 8.533 8.533 8.533h494.933c4.7 0 8.533-3.814 8.533-8.533V34.142C512 15.317 496.683 0 477.858 0zm17.075 290.133H17.067V34.142c0-9.42 7.663-17.075 17.075-17.075h443.716c9.412 0 17.075 7.654 17.075 17.075v255.99z"/><path d="M503.467 290.133H8.533c-4.7 0-8.533 3.814-8.533 8.533v76.79C0 394.283 15.317 409.6 34.142 409.6h443.716c18.825 0 34.142-15.317 34.142-34.142v-76.79c0-4.72-3.823-8.534-8.533-8.534zm-8.534 85.325c0 9.42-7.663 17.075-17.075 17.075H34.142c-9.412 0-17.075-7.654-17.075-17.075V307.2h477.867v68.258z"/><path d="M469.333 34.133H42.667a8.54 8.54 0 0 0-8.533 8.533v256a8.53 8.53 0 0 0 8.533 8.533h426.667a8.54 8.54 0 0 0 8.533-8.533v-256c0-4.718-3.823-8.533-8.534-8.533zm-8.533 256H51.2V51.2h409.6v238.933zM366.95 460.8h-221.9c-14.106 0-25.583 11.477-25.583 25.583v17.084A8.53 8.53 0 0 0 128 512h256a8.54 8.54 0 0 0 8.533-8.533v-17.084c0-14.106-11.477-25.583-25.583-25.583zm8.517 34.133H136.533v-8.55c0-4.702 3.823-8.516 8.516-8.516h221.9c4.693 0 8.516 3.814 8.516 8.516v8.55z"/><path d="M349.867 460.8c-28.314 0-42.667-20.096-42.667-59.733a8.53 8.53 0 0 0-8.533-8.533h-85.333a8.54 8.54 0 0 0-8.533 8.533c0 39.637-14.353 59.733-42.667 59.733a8.54 8.54 0 0 0-8.533 8.533c0 4.72 3.823 8.533 8.533 8.533h187.733a8.54 8.54 0 0 0 8.533-8.533c0-4.72-3.823-8.533-8.533-8.533zm-146.168 0c10.505-11.63 16.7-28.97 17.937-51.2h68.736c1.237 22.23 7.424 39.57 17.937 51.2H203.7zm69.368-102.4h-25.6v-17.067h25.6a8.54 8.54 0 0 0 8.533-8.533c0-4.72-3.823-8.533-8.533-8.533h-34.133a8.54 8.54 0 0 0-8.533 8.533v34.133a8.53 8.53 0 0 0 8.533 8.533h34.133a8.54 8.54 0 0 0 8.533-8.533c0-4.72-3.823-8.533-8.533-8.533zm-156.1-287.633c-3.328-3.336-8.738-3.336-12.066 0L70.767 104.9c-3.337 3.337-3.337 8.73 0 12.066a8.51 8.51 0 0 0 12.066 0l34.133-34.133c3.337-3.336 3.337-8.73 0-12.066zm59.734 51.2c-3.328-3.337-8.738-3.337-12.066 0L130.5 156.1c-3.337 3.337-3.337 8.73 0 12.066a8.51 8.51 0 0 0 12.066 0l34.133-34.133c3.337-3.336 3.337-8.73.001-12.066zm-8.534-51.2c-3.328-3.337-8.738-3.337-12.066 0L70.767 156.1c-3.337 3.337-3.337 8.73 0 12.066a8.51 8.51 0 0 0 12.066 0l85.333-85.333c3.337-3.336 3.337-8.73 0-12.066z"/></svg>